# xmcd
#
# Track frame offsets: 
#        150
#        15142
#        34571
#        50751
#        70102
#        83452
#
# Disc length: 1264 seconds
#
# Revision: 0
# Processed by: cddbd v1.5.2PL0 Copyright (c) Steve Scherf et al.
# Submitted via: ExactAudioCopyFreeDBPlugin 1.0
#
DISCID=3704ee06
DTITLE=Samantha Madison - No Regrets
DYEAR=2009
DGENRE=Country and Folk
TTITLE0=The Rain Does This To Me
TTITLE1=No Regrets
TTITLE2=I Believe In You
TTITLE3=Without Love
TTITLE4=Au Revior
TTITLE5=Get What You Give
EXTD=
EXTT0=
EXTT1=
EXTT2=
EXTT3=
EXTT4=
EXTT5=
PLAYORDER=
